Coordinates
version=1
nRows=10
nColumns=40
inDegrees=yes

Units are S.I. units (second, meters, Newtons, ...)
Angles are in degrees.

endheader
time	pelvis_tilt	pelvis_list	pelvis_rotation	pelvis_tx	pelvis_ty	pelvis_tz	hip_flexion_r	hip_adduction_r	hip_rotation_r	knee_angle_r	knee_angle_r_beta	ankle_angle_r	subtalar_angle_r	mtp_angle_r	hip_flexion_l	hip_adduction_l	hip_rotation_l	knee_angle_l	knee_angle_l_beta	ankle_angle_l	subtalar_angle_l	mtp_angle_l	lumbar_extension	lumbar_bending	lumbar_rotation	arm_flex_r	arm_add_r	arm_rot_r	elbow_flex_r	pro_sup_r	wrist_flex_r	wrist_dev_r	arm_flex_l	arm_add_l	arm_rot_l	elbow_flex_l	pro_sup_l	wrist_flex_l	wrist_dev_l
     51.24750000	     -3.67887095	     -4.11379580	      3.40022042	      1.06152526	      0.92702605	      0.44264692	      3.24972115	     -1.67829209	    -13.14425505	     26.00141548	     26.00141548	     16.50530940	      0.86115304	     -6.45013565	     23.47158842	     -6.05501143	     -3.13659569	     24.99697135	     24.99697135	      7.95942332	    -13.72118075	      4.15359687	     -8.35024110	      5.59001282	      3.42520650	     21.25626060	    -16.58714767	      6.60124325	     99.10979943	     43.88167717	      0.00000000	      0.00000000	      2.05687079	    -10.44326504	     -0.96761047	     41.88938818	     45.51473322	      0.00000000	      0.00000000
     51.26085714	     -3.69101117	     -4.08242994	      3.25910374	      1.06158524	      0.92740978	      0.43974866	      4.39620555	     -2.18090913	    -12.43727643	     28.46836663	     28.46836663	     14.00990180	     -1.44632082	    -12.15071864	     22.99893714	     -5.90578794	     -3.36959856	     24.91229991	     24.91229991	      8.31669911	    -13.60776719	      3.91522341	     -8.31724237	      5.51168507	      3.22680083	     20.30787588	    -16.76519527	      6.70270615	     98.09698050	     44.04269243	      0.00000000	      0.00000000	      2.20039780	    -11.37680452	      1.31042793	     44.43918127	     45.38455436	      0.00000000	      0.00000000
     51.27421429	     -3.56013781	     -3.95867010	      3.10612672	      1.06158640	      0.92795123	      0.43685971	      5.74495104	     -2.92676779	    -11.94451675	     31.78560445	     31.78560445	     13.18671977	     -2.51000458	    -12.80531150	     22.35018901	     -5.68032694	     -3.69665464	     24.81618868	     24.81618868	      8.72228303	    -13.45654907	      3.70548661	     -8.46264598	      5.35790581	      3.08450330	     19.25562187	    -16.92928081	      6.79448330	     97.23011400	     44.07231277	      0.00000000	      0.00000000	      3.14402669	    -11.57591812	      1.26669214	     45.05713094	     45.41073356	      0.00000000	      0.00000000
     51.28757143	     -3.52427873	     -3.86430536	      2.92534308	      1.06136349	      0.92819097	      0.43410387	      7.39564065	     -3.60851072	    -11.29433708	     35.33884639	     35.33884639	     12.02493581	     -3.92909721	    -13.54165353	     21.85946132	     -5.49249307	     -4.01174284	     24.78618754	     24.78618754	      9.06125191	    -13.29978610	      3.46820218	     -8.51402928	      5.23338503	      2.97106222	     18.10910051	    -17.09959533	      6.76679838	     96.06887636	     44.11485864	      0.00000000	      0.00000000	      4.01960953	    -11.81494534	      1.28411153	     45.88511718	     45.43200713	      0.00000000	      0.00000000
     51.30092857	     -3.42907294	     -3.76356100	      2.79270688	      1.06098797	      0.92837800	      0.43142669	      9.07891565	     -4.25173714	    -10.63618400	     38.96772412	     38.96772412	     10.62121285	     -5.44410665	    -14.15195972	     21.38144456	     -5.30572281	     -4.32559441	     24.85333482	     24.85333482	      9.36453054	    -13.14566809	      3.21653675	     -8.66758695	      5.14712422	      2.81547312	     16.93699860	    -17.17183924	      6.69060741	     94.77681261	     44.16163471	      0.00000000	      0.00000000	      4.90382641	    -12.10688735	      1.33817402	     46.79533047	     45.44973762	      0.00000000	      0.00000000
     51.31428571	     -3.40184616	     -3.92986151	      2.59839825	      1.06057232	      0.92837612	      0.42934132	     10.83725418	     -4.33768059	     -9.64286733	     42.32897826	     42.32897826	      8.48203064	     -8.05578864	    -15.43319080	     21.05408189	     -5.47415804	     -4.63247432	     25.03469575	     25.03469575	      9.74850331	    -12.91067271	      2.68628047	     -8.64910439	      5.20948550	      2.60717093	     15.95899392	    -16.69347077	      5.73950877	     92.02979403	     44.30649824	      0.00000000	      0.00000000	      5.17131055	    -12.77084250	      2.19173433	     49.00798003	     45.42170929	      0.00000000	      0.00000000
     51.32764286	     -3.26546445	     -3.78097206	      2.48341518	      1.06002951	      0.92840369	      0.42690576	     12.56974937	     -5.02357314	     -9.20873119	     45.91951639	     45.91951639	      6.94325542	     -9.10746609	    -15.53660804	     20.54252957	     -5.24132599	     -4.89484854	     25.10102875	     25.10102875	     10.14254012	    -12.74282313	      2.42821880	     -8.89188129	      5.05868486	      2.34143317	     14.73182359	    -16.71305933	      5.82305444	     90.88650392	     44.34227743	      0.00000000	      0.00000000	      6.08849897	    -13.13042427	      2.24695080	     49.75752426	     45.44031437	      0.00000000	      0.00000000
     51.34100000	     -3.19716151	     -3.86704084	      2.32207685	      1.05943204	      0.92833083	      0.42499313	     14.36629697	     -5.18581185	     -8.49990834	     49.25941655	     49.25941655	      5.46087981	    -10.71818512	    -14.58557365	     20.20465905	     -5.34342841	     -5.21582059	     25.32389151	     25.32389151	     10.58402804	    -12.35868498	      1.98471393	     -8.96176209	      5.12055900	      2.13239221	     13.80316819	    -16.19315415	      4.97784780	     87.89474993	     44.48923513	      0.00000000	      0.00000000	      6.56467823	    -13.82519385	      3.19283285	     51.58074611	     45.41611536	      0.00000000	      0.00000000
     51.35435714	     -3.08853630	     -3.88242170	      2.15287738	      1.05877389	      0.92834955	      0.42319203	     16.07948762	     -5.46958575	     -8.02861337	     52.40785379	     52.40785379	      4.41909914	    -11.57315824	    -12.76942757	     19.81350115	     -5.37337708	     -5.56607620	     25.52571370	     25.52571370	     10.99500925	    -12.08036712	      1.70434361	     -9.12795372	      5.09755435	      1.96015992	     12.73289368	    -15.88375170	      4.48095959	     85.37763060	     44.60695132	      0.00000000	      0.00000000	      7.26988637	    -14.40342833	      3.86180679	     52.87771001	     45.42130275	      0.00000000	      0.00000000
     51.36771429	     -2.97945986	     -3.91726838	      1.97762388	      1.05814289	      0.92842485	      0.42156084	     17.70391626	     -5.67828154	     -7.62924376	     55.21096536	     55.21096536	      3.66916693	    -12.17359440	    -10.58060133	     19.39648698	     -5.43293120	     -5.90230696	     25.69259455	     25.69259455	     11.44620889	    -11.74217883	      1.46485115	     -9.27258898	      5.10209201	      1.89688463	     11.59627600	    -15.62805669	      3.94771521	     82.72507641	     44.72465805	      0.00000000	      0.00000000	      8.12501011	    -14.83584008	      4.30919757	     53.91250752	     45.44221730	      0.00000000	      0.00000000
